HIERARCHY
ROOT Hips
{
	OFFSET 0.000000 0.000000 0.000000
	CHANNELS 6 Xposition Yposition Zposition Xrotation Yrotation Zrotation
	JOINT LeftUpLeg_virtual
	{
		OFFSET 0.000000 0.000000 0.000000
		CHANNELS 3 Xrotation Yrotation Zrotation
		JOINT LeftUpLeg
		{
			OFFSET 11.394100 -6.187798 -0.413800
			CHANNELS 3 Xrotation Yrotation Zrotation
			JOINT LeftLeg
			{
				OFFSET 0.430247 -32.302673 3.732800
				CHANNELS 3 Xrotation Yrotation Zrotation
				JOINT LeftFoot
				{
					OFFSET -0.430247 -48.264931 -6.423300
					CHANNELS 3 Xrotation Yrotation Zrotation
					JOINT LeftToeBase
					{
						OFFSET 4.230900 -16.068199 23.438400
						CHANNELS 3 Xrotation Yrotation Zrotation
						JOINT LeftToe_End
						{
							OFFSET 4.510700 0.695400 19.974600
							CHANNELS 3 Xrotation Yrotation Zrotation
							End Site
							{
								OFFSET 0 0 0
							}
						}
					}
				}
			}
		}
	}
	JOINT RightUpLeg_virtual
	{
		OFFSET 0.000000 0.000000 0.000000
		CHANNELS 3 Xrotation Yrotation Zrotation
		JOINT RightUpLeg
		{
			OFFSET -11.333700 -6.187798 -0.413800
			CHANNELS 3 Xrotation Yrotation Zrotation
			JOINT RightLeg
			{
				OFFSET -0.430392 -32.302628 3.733000
				CHANNELS 3 Xrotation Yrotation Zrotation
				JOINT RightFoot
				{
					OFFSET 0.430392 -48.264973 -6.423500
					CHANNELS 3 Xrotation Yrotation Zrotation
					JOINT RightToeBase
					{
						OFFSET -4.230900 -16.068199 23.438400
						CHANNELS 3 Xrotation Yrotation Zrotation
						JOINT RightToe_End
						{
							OFFSET -4.510700 0.695400 19.974600
							CHANNELS 3 Xrotation Yrotation Zrotation
							End Site
							{
								OFFSET 0 0 0
							}
						}
					}
				}
			}
		}
	}
	JOINT Spine_virtual
	{
		OFFSET 0.000000 0.000000 0.000000
		CHANNELS 3 Xrotation Yrotation Zrotation
		JOINT Spine
		{
			OFFSET -0.002400 12.777504 0.315300
			CHANNELS 3 Xrotation Yrotation Zrotation
			JOINT Spine1
			{
				OFFSET -0.002067 5.816869 0.032633
				CHANNELS 3 Xrotation Yrotation Zrotation
				JOINT Spine1_split
				{
					OFFSET -0.002067 5.816869 0.032633
					CHANNELS 3 Xrotation Yrotation Zrotation
					JOINT Spine2
					{
						OFFSET -0.002067 5.816869 0.032633
						CHANNELS 3 Xrotation Yrotation Zrotation
						JOINT Neck_virtual
						{
							OFFSET 0.000000 0.000000 0.000000
							CHANNELS 3 Xrotation Yrotation Zrotation
							JOINT Neck
							{
								OFFSET -0.003700 21.199493 -0.826900
								CHANNELS 3 Xrotation Yrotation Zrotation
								JOINT Head
								{
									OFFSET 0.000000 20.442200 4.834800
									CHANNELS 3 Xrotation Yrotation Zrotation
									JOINT HeadTop_End
									{
										OFFSET 0.000000 34.668396 4.968400
										CHANNELS 3 Xrotation Yrotation Zrotation
										End Site
										{
											OFFSET 0 0 0
										}
									}
								}
							}
						}
						JOINT LeftShoulder_virtual
						{
							OFFSET 0.000000 0.000000 0.000000
							CHANNELS 3 Xrotation Yrotation Zrotation
							JOINT LeftShoulder
							{
								OFFSET 3.288150 8.794197 -1.372250
								CHANNELS 3 Xrotation Yrotation Zrotation
								JOINT LeftShoulder_split
								{
									OFFSET 3.288150 8.794197 -1.372250
									CHANNELS 3 Xrotation Yrotation Zrotation
									JOINT LeftArm
									{
										OFFSET 11.953299 -2.279007 -0.146200
										CHANNELS 3 Xrotation Yrotation Zrotation
										JOINT LeftForeArm
										{
											OFFSET 18.448900 0.000000 0.000000
											CHANNELS 3 Xrotation Yrotation Zrotation
											JOINT LeftHand
											{
												OFFSET 29.527798 0.000000 0.000000
												CHANNELS 3 Xrotation Yrotation Zrotation
												End Site
												{
													OFFSET 0 0 0
												}
											}
										}
									}
								}
							}
						}
						JOINT RightShoulder_virtual
						{
							OFFSET 0.000000 0.000000 0.000000
							CHANNELS 3 Xrotation Yrotation Zrotation
							JOINT RightShoulder
							{
								OFFSET -3.249400 8.794197 -1.372250
								CHANNELS 3 Xrotation Yrotation Zrotation
								JOINT RightShoulder_split
								{
									OFFSET -3.249400 8.794197 -1.372250
									CHANNELS 3 Xrotation Yrotation Zrotation
									JOINT RightArm
									{
										OFFSET -11.953299 -2.279007 -0.146200
										CHANNELS 3 Xrotation Yrotation Zrotation
										JOINT RightForeArm
										{
											OFFSET -18.448900 0.000000 0.000000
											CHANNELS 3 Xrotation Yrotation Zrotation
											JOINT RightHand
											{
												OFFSET -29.527802 0.000000 0.000000
												CHANNELS 3 Xrotation Yrotation Zrotation
												End Site
												{
													OFFSET 0 0 0
												}
											}
										}
									}
								}
							}
						}
					}
				}
			}
		}
	}
}
MOTION
Frames: 7
Frame Time: 0.03333333
4.508720 101.033615 -0.986465 0.000000 0.000000 0.000000 -2.518888 2.777363 -4.490028 -22.326068 8.311142 16.842676 27.223870 11.845096 1.614386 -3.868120 3.509509 -9.865383 2.965691 0.044273 -2.236863 0.000000 0.000000 0.000000 -1.931873 3.296412 -5.058961 -5.813144 -2.966375 7.402838 -2.689057 -7.667989 -2.021861 7.120236 0.350764 -10.579266 -3.006699 -0.299392 -1.139809 0.000000 0.000000 0.000000 -2.877949 0.759693 -4.865992 2.003608 -1.090452 3.223948 1.341416 0.009179 5.760156 0.752962 1.695252 -0.299140 0.000000 0.000000 0.000000 -0.215602 0.430567 5.585619 0.098918 0.847966 -2.458574 2.099682 2.753972 -8.101986 0.000000 0.000000 0.000000 0.089576 0.526737 5.507352 4.358382 -10.958795 -4.621243 -1.062657 0.806378 -0.692743 4.458881 3.816646 -85.482235 -1.941026 -13.080491 0.640894 0.000000 0.000000 0.000000 0.611893 0.714827 5.535748 5.210938 2.815258 8.078439 -1.719125 2.655163 -1.840213 0.859657 4.543946 66.483019 1.384588 20.003799 1.686723 0.000000 0.000000 0.000000 
4.363942 100.967758 -1.027996 0.000000 0.000000 0.000000 -2.501746 2.949312 -4.521605 -22.390333 8.217827 16.920660 27.281580 11.801623 1.652600 -3.799588 3.484539 -10.013744 2.889896 0.058179 -2.310873 0.000000 0.000000 0.000000 -1.912862 3.509814 -5.078021 -5.861541 -2.898451 7.500678 -2.837623 -7.744314 -2.046580 7.177095 0.319831 -10.529285 -3.029220 -0.247778 -1.122485 0.000000 0.000000 0.000000 -2.814561 1.006643 -4.933376 1.972865 -1.144584 3.240972 1.393321 0.011436 5.732681 0.777896 1.633074 -0.333653 0.000000 0.000000 0.000000 -0.208395 0.420725 5.559290 -0.066538 0.830055 -2.214609 1.785920 2.619610 -8.038552 0.000000 0.000000 0.000000 0.105108 0.506957 5.499364 4.352900 -10.934345 -4.685091 -1.019639 0.703530 -0.387767 4.366598 3.872648 -85.197369 -2.046867 -13.143254 0.496730 0.000000 0.000000 0.000000 0.586712 0.695626 5.513346 5.142227 2.966757 8.102626 -1.560203 2.778546 -1.888079 0.938910 4.539805 66.731344 1.280662 20.175238 1.725475 0.000000 0.000000 0.000000 
4.143661 100.875694 -1.105068 0.000000 0.000000 0.000000 -2.425329 3.167644 -4.684777 -22.736535 8.047911 17.242777 27.645102 11.709796 1.675501 -3.714023 3.418904 -10.181413 2.822820 0.069428 -2.340400 0.000000 0.000000 0.000000 -1.821238 3.780388 -5.212519 -5.826852 -2.705119 7.725896 -3.219807 -7.741677 -2.068966 7.461975 0.353084 -10.343068 -2.883431 -0.197306 -1.096225 0.000000 0.000000 0.000000 -2.698299 1.279107 -5.096626 1.935065 -1.236625 3.283343 1.505179 -0.000022 5.690854 0.818761 1.563169 -0.358394 0.000000 0.000000 0.000000 -0.138305 0.396018 5.520550 -0.424255 0.810288 -1.918086 0.903320 2.361241 -7.697637 0.000000 0.000000 0.000000 0.151067 0.474960 5.473091 4.343932 -10.942944 -4.713518 -0.999009 0.595023 -0.170756 4.056278 3.727323 -84.556000 -2.128634 -13.151003 0.355558 0.000000 0.000000 0.000000 0.597391 0.652585 5.478812 5.013081 3.084963 8.297888 -1.483302 2.839977 -1.958960 1.148635 5.110395 66.862334 1.236590 20.061285 1.736143 0.000000 0.000000 0.000000 
3.889607 100.772026 -1.177525 0.000000 0.000000 0.000000 -2.300312 3.397482 -4.952115 -23.285933 7.806331 17.731089 28.187147 11.590179 1.703223 -3.694514 3.338929 -10.361104 2.785948 0.075723 -2.333242 0.000000 0.000000 0.000000 -1.657332 4.072688 -5.452412 -5.711005 -2.385617 8.051370 -3.740343 -7.699053 -2.086995 7.920619 0.388847 -10.118759 -2.710158 -0.151754 -1.046125 0.000000 0.000000 0.000000 -2.527986 1.552788 -5.322794 1.873329 -1.348350 3.336023 1.675379 -0.014934 5.634395 0.835609 1.534351 -0.384960 0.000000 0.000000 0.000000 -0.005545 0.358505 5.462883 -0.921405 0.783992 -1.596734 -0.462751 2.021321 -7.137032 0.000000 0.000000 0.000000 0.231848 0.436334 5.424514 4.329599 -10.969653 -4.721402 -1.020691 0.401855 -0.068852 3.558966 3.352745 -83.658711 -2.158590 -13.125593 0.227988 0.000000 0.000000 0.000000 0.649736 0.597512 5.429991 4.822657 3.167151 8.666122 -1.457128 2.910107 -2.046270 1.470408 6.174850 66.827390 1.261022 19.643014 1.724775 0.000000 0.000000 0.000000 
3.623676 100.667915 -1.228958 0.000000 0.000000 0.000000 -2.113821 3.651915 -5.283825 -23.958944 7.500062 18.301002 28.788892 11.440450 1.751326 -3.796738 3.249112 -10.592446 2.725390 0.072633 -2.272321 0.000000 0.000000 0.000000 -1.441838 4.351247 -5.760821 -5.529970 -1.969580 8.429568 -4.347586 -7.653058 -2.104466 8.467361 0.373901 -9.940236 -2.612914 -0.114277 -0.953039 0.000000 0.000000 0.000000 -2.324046 1.816222 -5.572637 1.773680 -1.469931 3.380473 1.891600 -0.025628 5.557314 0.850154 1.518207 -0.394928 0.000000 0.000000 0.000000 0.173180 0.315325 5.375896 -1.466382 0.755881 -1.281125 -2.168161 1.651003 -6.443296 0.000000 0.000000 0.000000 0.348564 0.398464 5.348287 4.303818 -10.987488 -4.739507 -1.074041 0.076993 -0.052849 2.944756 2.752093 -82.596952 -2.102971 -13.123838 0.132124 0.000000 0.000000 0.000000 0.747375 0.538504 5.361172 4.582775 3.204012 9.171380 -1.482864 2.927620 -2.110866 1.914443 7.638341 66.577993 1.354768 18.916226 1.690734 0.000000 0.000000 0.000000 
3.358311 100.587509 -1.244358 0.000000 0.000000 0.000000 -1.857460 3.945572 -5.632400 -24.685595 7.150883 18.869733 29.422734 11.265423 1.819900 -4.017396 3.162038 -10.897890 2.612877 0.057074 -2.162066 0.000000 0.000000 0.000000 -1.179407 4.588217 -6.091658 -5.315807 -1.469015 8.818896 -5.002322 -7.584570 -2.125531 9.008642 0.307419 -9.861642 -2.650904 -0.085938 -0.831111 0.000000 0.000000 0.000000 -2.092286 2.029124 -5.820499 1.619490 -1.590148 3.404668 2.138779 -0.026872 5.453999 0.882724 1.498285 -0.389908 0.000000 0.000000 0.000000 0.376217 0.270083 5.255540 -1.985862 0.739303 -0.994516 -4.047846 1.276553 -5.675252 0.000000 0.000000 0.000000 0.500397 0.362208 5.241164 4.259700 -10.970167 -4.793659 -1.091039 -0.341804 -0.062248 2.307459 2.017912 -81.457560 -1.957429 -13.210648 0.067205 0.000000 0.000000 0.000000 0.890660 0.483695 5.269506 4.308368 3.193463 9.774512 -1.587370 2.876777 -2.152307 2.465684 9.330324 66.076022 1.505185 17.916071 1.641374 0.000000 0.000000 0.000000 
3.118903 100.524818 -1.242062 0.000000 0.000000 0.000000 -1.530788 4.238377 -5.967716 -25.405092 6.785224 19.387702 30.072449 11.062509 1.912248 -4.309214 3.101397 -11.274310 2.451249 0.033502 -2.022022 0.000000 0.000000 0.000000 -0.861304 4.763528 -6.407867 -5.118298 -0.899563 9.196501 -5.650671 -7.461173 -2.142629 9.491127 0.216802 -9.916980 -2.798234 -0.062236 -0.716081 0.000000 0.000000 0.000000 -1.844412 2.170823 -6.051405 1.414056 -1.708448 3.401550 2.406004 -0.020200 5.323019 0.916619 1.503012 -0.389122 0.000000 0.000000 0.000000 0.584509 0.229063 5.106608 -2.438716 0.725633 -0.742717 -5.936982 0.878477 -4.882603 0.000000 0.000000 0.000000 0.679276 0.327538 5.105885 4.198461 -10.920526 -4.885858 -1.069749 -0.800225 -0.052732 1.691600 1.256843 -80.293867 -1.728191 -13.396955 0.018261 0.000000 0.000000 0.000000 1.066177 0.442820 5.160526 4.021492 3.156236 10.434255 -1.762768 2.801731 -2.151764 3.109216 11.092409 65.333662 1.675445 16.734199 1.591378 0.000000 0.000000 0.000000 
